<?xml version="1.0" encoding="utf-8"?>
<!-- Generator: Adobe Illustrator 27.0.0, SVG Export Plug-In . SVG Version: 6.00 Build 0)  -->
<svg version="1.1" id="Layer_1" xmlns="http://www.w3.org/2000/svg" xmlns:xlink="http://www.w3.org/1999/xlink" x="0px" y="0px"
	 viewBox="0 0 175 50" style="enable-background:new 0 0 175 50;" xml:space="preserve">
<style type="text/css">
	.st0{clip-path:url(#SVGID_00000176733314369585014000000004386541276960400275_);}
	.st1{clip-path:url(#SVGID_00000134928254905588490070000002107885620896936341_);}
	.st2{clip-path:url(#SVGID_00000143618242998955613200000012195934779098640540_);}
	.st3{clip-path:url(#SVGID_00000132795795092612964990000017924465202948183723_);}
	.st4{clip-path:url(#SVGID_00000033342918873952370330000016127359303302810789_);}
	.st5{clip-path:url(#SVGID_00000129923876115872706000000013912228496400004488_);}
	.st6{clip-path:url(#SVGID_00000025444476681218771910000001417336387223892886_);}
	.st7{clip-path:url(#SVGID_00000026146279776013703200000010329158216385338504_);}
	.st8{clip-path:url(#SVGID_00000054979193929203810880000015854953646652353458_);}
	.st9{clip-path:url(#SVGID_00000019678769151016850540000001586995565207018914_);}
	.st10{clip-path:url(#SVGID_00000106864707600768135910000007998452828550601396_);}
	.st11{clip-path:url(#SVGID_00000029732710253078628270000012699221495093079964_);}
	.st12{clip-path:url(#SVGID_00000005947180226710588220000005319149012073567140_);}
	.st13{clip-path:url(#SVGID_00000150811882582298993330000008868251077702534806_);}
	.st14{clip-path:url(#SVGID_00000074401906140602550820000012778626775461491371_);}
	.st15{clip-path:url(#SVGID_00000008855847974952480580000017265730335113335487_);}
	.st16{clip-path:url(#SVGID_00000168115319800250737800000008563764037219528854_);}
	.st17{clip-path:url(#SVGID_00000158731207053445963210000013069792806600118185_);}
	.st18{clip-path:url(#SVGID_00000073694959557823375650000008677519965771452551_);}
	.st19{clip-path:url(#SVGID_00000039835996252876440990000012194997387436077728_);}
	.st20{clip-path:url(#SVGID_00000093866452008085961240000014457672448522303905_);}
	.st21{fill:url(#SVGID_1_);}
	.st22{fill:#E03D31;}
</style>
<g>
	<g>
		<defs>
			<path id="SVGID_00000070798028694410490780000002305462365814457232_" d="M95.32,5.44v10.72c0,3.09,0.63,5.68,4.27,5.68
				c3.81,0,4.29-2.93,4.29-5.61v-0.71h-2.29v0.88c0,1.98-0.3,3.41-1.94,3.41c-1.58,0-2.04-1.39-2.04-3.5V5.37
				c0-1.86,0.4-3.11,1.98-3.11c1.67,0,1.93,1.39,1.93,3.06V6.3h2.28V5.48c0-2.76-0.63-5.27-4.17-5.27
				C96.77,0.21,95.32,2.07,95.32,5.44"/>
		</defs>
		<clipPath id="SVGID_00000134971713521211952260000011146935252928203913_">
			<use xlink:href="#SVGID_00000070798028694410490780000002305462365814457232_"  style="overflow:visible;"/>
		</clipPath>
	</g>
	<g>
		<defs>
			<path id="SVGID_00000121991157422654111900000012283627571309473727_" d="M95.32,5.44v10.72c0,3.09,0.63,5.68,4.27,5.68
				c3.81,0,4.29-2.93,4.29-5.61v-0.71h-2.29v0.88c0,1.98-0.3,3.41-1.94,3.41c-1.58,0-2.04-1.39-2.04-3.5V5.37
				c0-1.86,0.4-3.11,1.98-3.11c1.67,0,1.93,1.39,1.93,3.06V6.3h2.28V5.48c0-2.76-0.63-5.27-4.17-5.27
				C96.77,0.21,95.32,2.07,95.32,5.44"/>
		</defs>
		<use xlink:href="#SVGID_00000121991157422654111900000012283627571309473727_"  style="overflow:visible;"/>
		<clipPath id="SVGID_00000005234099718869962050000000248258574861406089_">
			<use xlink:href="#SVGID_00000121991157422654111900000012283627571309473727_"  style="overflow:visible;"/>
		</clipPath>
		
			<rect x="95.32" y="0.21" style="clip-path:url(#SVGID_00000005234099718869962050000000248258574861406089_);" width="8.57" height="21.64"/>
	</g>
	<g>
		<defs>
			<path id="SVGID_00000044149418319502584200000007701349624133647247_" d="M95.32,5.44v10.72c0,3.09,0.63,5.68,4.27,5.68
				c3.81,0,4.29-2.93,4.29-5.61v-0.71h-2.29v0.88c0,1.98-0.3,3.41-1.94,3.41c-1.58,0-2.04-1.39-2.04-3.5V5.37
				c0-1.86,0.4-3.11,1.98-3.11c1.67,0,1.93,1.39,1.93,3.06V6.3h2.28V5.48c0-2.76-0.63-5.27-4.17-5.27
				C96.77,0.21,95.32,2.07,95.32,5.44"/>
		</defs>
		<clipPath id="SVGID_00000038372639774803563330000018418022949081275326_">
			<use xlink:href="#SVGID_00000044149418319502584200000007701349624133647247_"  style="overflow:visible;"/>
		</clipPath>
	</g>
</g>
<g>
	<g>
		<defs>
			<path id="SVGID_00000133503095084533870740000010597310161182135979_" d="M110.34,8.82v8.4c0,2.44-0.71,2.99-1.61,2.99
				c-0.95,0-1.36-0.6-1.36-2.12V8.82h-1.79v9.74c0,2.86,1.44,3.27,2.49,3.27c1.1,0,1.91-0.37,2.3-1.53c0,0.45,0.04,1.1,0.07,1.33
				h1.7c-0.02-0.61-0.02-1.8-0.02-3.46V8.82H110.34z"/>
		</defs>
		<clipPath id="SVGID_00000163057427839383581830000010703147323796881070_">
			<use xlink:href="#SVGID_00000133503095084533870740000010597310161182135979_"  style="overflow:visible;"/>
		</clipPath>
	</g>
	<g>
		<defs>
			<path id="SVGID_00000100350926706687001760000000380748364754436485_" d="M110.34,8.82v8.4c0,2.44-0.71,2.99-1.61,2.99
				c-0.95,0-1.36-0.6-1.36-2.12V8.82h-1.79v9.74c0,2.86,1.44,3.27,2.49,3.27c1.1,0,1.91-0.37,2.3-1.53c0,0.45,0.04,1.1,0.07,1.33
				h1.7c-0.02-0.61-0.02-1.8-0.02-3.46V8.82H110.34z"/>
		</defs>
		<use xlink:href="#SVGID_00000100350926706687001760000000380748364754436485_"  style="overflow:visible;"/>
		<clipPath id="SVGID_00000121241522338318898450000018327489781502606217_">
			<use xlink:href="#SVGID_00000100350926706687001760000000380748364754436485_"  style="overflow:visible;"/>
		</clipPath>
		
			<rect x="105.58" y="8.82" style="clip-path:url(#SVGID_00000121241522338318898450000018327489781502606217_);" width="6.57" height="13.01"/>
	</g>
	<g>
		<defs>
			<path id="SVGID_00000117677713304919849720000005895155775200128412_" d="M110.34,8.82v8.4c0,2.44-0.71,2.99-1.61,2.99
				c-0.95,0-1.36-0.6-1.36-2.12V8.82h-1.79v9.74c0,2.86,1.44,3.27,2.49,3.27c1.1,0,1.91-0.37,2.3-1.53c0,0.45,0.04,1.1,0.07,1.33
				h1.7c-0.02-0.61-0.02-1.8-0.02-3.46V8.82H110.34z"/>
		</defs>
		<clipPath id="SVGID_00000071537210712897609270000000653515668138633402_">
			<use xlink:href="#SVGID_00000117677713304919849720000005895155775200128412_"  style="overflow:visible;"/>
		</clipPath>
	</g>
</g>
<g>
	<g>
		<defs>
			<path id="SVGID_00000121254742631585178600000003654252727919203241_" d="M113.87,11.9c0,1.78,0.8,2.68,2.51,3.81
				c1.46,0.96,1.83,1.56,1.83,2.79c0,1.18-0.39,1.79-1.36,1.79c-0.91,0-1.41-0.66-1.41-1.9v-0.56h-1.81v0.58
				c0,1.76,0.64,3.43,3.15,3.43c2.2,0,3.25-1.24,3.25-3.56c0-2.11-0.89-3-2.77-4.23c-1.28-0.85-1.59-1.29-1.59-2.29
				c0-0.99,0.35-1.58,1.2-1.58c0.93,0,1.24,0.62,1.24,1.71v0.71h1.74v-0.59c0-1.93-0.7-3.37-2.97-3.37
				C114.78,8.62,113.87,10.01,113.87,11.9"/>
		</defs>
		<clipPath id="SVGID_00000015329405322241237520000004778874785754374313_">
			<use xlink:href="#SVGID_00000121254742631585178600000003654252727919203241_"  style="overflow:visible;"/>
		</clipPath>
	</g>
	<g>
		<defs>
			<path id="SVGID_00000095314206959495468480000011546087924742350229_" d="M113.87,11.9c0,1.78,0.8,2.68,2.51,3.81
				c1.46,0.96,1.83,1.56,1.83,2.79c0,1.18-0.39,1.79-1.36,1.79c-0.91,0-1.41-0.66-1.41-1.9v-0.56h-1.81v0.58
				c0,1.76,0.64,3.43,3.15,3.43c2.2,0,3.25-1.24,3.25-3.56c0-2.11-0.89-3-2.77-4.23c-1.28-0.85-1.59-1.29-1.59-2.29
				c0-0.99,0.35-1.58,1.2-1.58c0.93,0,1.24,0.62,1.24,1.71v0.71h1.74v-0.59c0-1.93-0.7-3.37-2.97-3.37
				C114.78,8.62,113.87,10.01,113.87,11.9"/>
		</defs>
		<use xlink:href="#SVGID_00000095314206959495468480000011546087924742350229_"  style="overflow:visible;"/>
		<clipPath id="SVGID_00000039119185856137453080000008405979662398119304_">
			<use xlink:href="#SVGID_00000095314206959495468480000011546087924742350229_"  style="overflow:visible;"/>
		</clipPath>
		
			<rect x="113.63" y="8.62" style="clip-path:url(#SVGID_00000039119185856137453080000008405979662398119304_);" width="6.39" height="13.21"/>
	</g>
	<g>
		<defs>
			<path id="SVGID_00000147918248294095598410000012804042220083735705_" d="M113.87,11.9c0,1.78,0.8,2.68,2.51,3.81
				c1.46,0.96,1.83,1.56,1.83,2.79c0,1.18-0.39,1.79-1.36,1.79c-0.91,0-1.41-0.66-1.41-1.9v-0.56h-1.81v0.58
				c0,1.76,0.64,3.43,3.15,3.43c2.2,0,3.25-1.24,3.25-3.56c0-2.11-0.89-3-2.77-4.23c-1.28-0.85-1.59-1.29-1.59-2.29
				c0-0.99,0.35-1.58,1.2-1.58c0.93,0,1.24,0.62,1.24,1.71v0.71h1.74v-0.59c0-1.93-0.7-3.37-2.97-3.37
				C114.78,8.62,113.87,10.01,113.87,11.9"/>
		</defs>
		<clipPath id="SVGID_00000149346602849914535500000012654275505153969557_">
			<use xlink:href="#SVGID_00000147918248294095598410000012804042220083735705_"  style="overflow:visible;"/>
		</clipPath>
	</g>
</g>
<g>
	<g>
		<defs>
			<path id="SVGID_00000090266491562732635740000014789919470870940820_" d="M122.2,5.67v3.15h-1.47v1.59h1.47v8.92
				c0,1.96,0.87,2.47,2.11,2.47c0.43,0,1-0.04,1.39-0.19v-1.38c-0.18,0.05-0.56,0.08-0.8,0.08c-0.81,0-0.92-0.63-0.92-1.29v-8.6h1.8
				V8.82h-1.8V5.67H122.2z"/>
		</defs>
		<clipPath id="SVGID_00000064339355134953172640000006776033913175677569_">
			<use xlink:href="#SVGID_00000090266491562732635740000014789919470870940820_"  style="overflow:visible;"/>
		</clipPath>
	</g>
	<g>
		<defs>
			<path id="SVGID_00000071539017508412205050000006997301519592184507_" d="M122.2,5.67v3.15h-1.47v1.59h1.47v8.92
				c0,1.96,0.87,2.47,2.11,2.47c0.43,0,1-0.04,1.39-0.19v-1.38c-0.18,0.05-0.56,0.08-0.8,0.08c-0.81,0-0.92-0.63-0.92-1.29v-8.6h1.8
				V8.82h-1.8V5.67H122.2z"/>
		</defs>
		<use xlink:href="#SVGID_00000071539017508412205050000006997301519592184507_"  style="overflow:visible;"/>
		<clipPath id="SVGID_00000141413486662921679560000013441540284560730004_">
			<use xlink:href="#SVGID_00000071539017508412205050000006997301519592184507_"  style="overflow:visible;"/>
		</clipPath>
		
			<rect x="120.74" y="5.67" style="clip-path:url(#SVGID_00000141413486662921679560000013441540284560730004_);" width="5.05" height="16.12"/>
	</g>
	<g>
		<defs>
			<path id="SVGID_00000003095503742195575210000018350821463366697656_" d="M122.2,5.67v3.15h-1.47v1.59h1.47v8.92
				c0,1.96,0.87,2.47,2.11,2.47c0.43,0,1-0.04,1.39-0.19v-1.38c-0.18,0.05-0.56,0.08-0.8,0.08c-0.81,0-0.92-0.63-0.92-1.29v-8.6h1.8
				V8.82h-1.8V5.67H122.2z"/>
		</defs>
		<clipPath id="SVGID_00000081623570835135035100000015781192854084432282_">
			<use xlink:href="#SVGID_00000003095503742195575210000018350821463366697656_"  style="overflow:visible;"/>
		</clipPath>
	</g>
</g>
<g>
	<g>
		<defs>
			<path id="SVGID_00000034771082057637885720000010836617917894656915_" d="M128.51,17.94V12.4c0-1.4,0.46-2.18,1.54-2.18
				c1.11,0,1.53,0.91,1.53,2.17v5.53c0,1.63-0.54,2.31-1.53,2.31C128.98,20.23,128.51,19.33,128.51,17.94 M126.71,12.41v5.47
				c0,2.73,1.23,3.95,3.31,3.95c2.06,0,3.37-1.24,3.37-4.01v-5.36c0-2.43-1.14-3.83-3.3-3.83C128.01,8.62,126.71,9.94,126.71,12.41"
				/>
		</defs>
		<clipPath id="SVGID_00000026136332995640937160000015784592253919157426_">
			<use xlink:href="#SVGID_00000034771082057637885720000010836617917894656915_"  style="overflow:visible;"/>
		</clipPath>
	</g>
	<g>
		<defs>
			<path id="SVGID_00000127026382726274306400000015551914828172536998_" d="M128.51,17.94V12.4c0-1.4,0.46-2.18,1.54-2.18
				c1.11,0,1.53,0.91,1.53,2.17v5.53c0,1.63-0.54,2.31-1.53,2.31C128.98,20.23,128.51,19.33,128.51,17.94 M126.71,12.41v5.47
				c0,2.73,1.23,3.95,3.31,3.95c2.06,0,3.37-1.24,3.37-4.01v-5.36c0-2.43-1.14-3.83-3.3-3.83C128.01,8.62,126.71,9.94,126.71,12.41"
				/>
		</defs>
		<use xlink:href="#SVGID_00000127026382726274306400000015551914828172536998_"  style="overflow:visible;"/>
		<clipPath id="SVGID_00000117649474899418982320000012267324785671979959_">
			<use xlink:href="#SVGID_00000127026382726274306400000015551914828172536998_"  style="overflow:visible;"/>
		</clipPath>
		
			<rect x="126.71" y="8.62" style="clip-path:url(#SVGID_00000117649474899418982320000012267324785671979959_);" width="6.68" height="13.21"/>
	</g>
	<g>
		<defs>
			<path id="SVGID_00000144304533922754516980000014205539953867387834_" d="M128.51,17.94V12.4c0-1.4,0.46-2.18,1.54-2.18
				c1.11,0,1.53,0.91,1.53,2.17v5.53c0,1.63-0.54,2.31-1.53,2.31C128.98,20.23,128.51,19.33,128.51,17.94 M126.71,12.41v5.47
				c0,2.73,1.23,3.95,3.31,3.95c2.06,0,3.37-1.24,3.37-4.01v-5.36c0-2.43-1.14-3.83-3.3-3.83C128.01,8.62,126.71,9.94,126.71,12.41"
				/>
		</defs>
		<clipPath id="SVGID_00000075843896922878214930000002651532196469717937_">
			<use xlink:href="#SVGID_00000144304533922754516980000014205539953867387834_"  style="overflow:visible;"/>
		</clipPath>
	</g>
</g>
<g>
	<g>
		<defs>
			<path id="SVGID_00000065068151411035254750000003747846694528784788_" d="M141.3,10.1c-0.29-1.07-1-1.48-1.99-1.48
				c-1.1,0-1.81,0.54-2.19,1.4c-0.01-0.43-0.01-0.83-0.07-1.2h-1.7c0.03,0.62,0.03,1.37,0.03,3.69v9.12h1.79v-8.81
				c0-1.46,0.27-2.55,1.44-2.55c0.87,0,1.22,0.49,1.22,1.87v9.5h1.8V12.7c0-1.38,0.27-2.45,1.47-2.45c1,0,1.19,0.76,1.19,1.76v9.61
				h1.79v-9.97c0-2.47-1.16-3.03-2.41-3.03C142.36,8.62,141.7,9.31,141.3,10.1"/>
		</defs>
		<clipPath id="SVGID_00000128443313140701360100000011163037818505955208_">
			<use xlink:href="#SVGID_00000065068151411035254750000003747846694528784788_"  style="overflow:visible;"/>
		</clipPath>
	</g>
	<g>
		<defs>
			<path id="SVGID_00000175288742743766096630000000471763720934304689_" d="M141.3,10.1c-0.29-1.07-1-1.48-1.99-1.48
				c-1.1,0-1.81,0.54-2.19,1.4c-0.01-0.43-0.01-0.83-0.07-1.2h-1.7c0.03,0.62,0.03,1.37,0.03,3.69v9.12h1.79v-8.81
				c0-1.46,0.27-2.55,1.44-2.55c0.87,0,1.22,0.49,1.22,1.87v9.5h1.8V12.7c0-1.38,0.27-2.45,1.47-2.45c1,0,1.19,0.76,1.19,1.76v9.61
				h1.79v-9.97c0-2.47-1.16-3.03-2.41-3.03C142.36,8.62,141.7,9.31,141.3,10.1"/>
		</defs>
		<use xlink:href="#SVGID_00000175288742743766096630000000471763720934304689_"  style="overflow:visible;"/>
		<clipPath id="SVGID_00000070815692914275623100000013908202238835667134_">
			<use xlink:href="#SVGID_00000175288742743766096630000000471763720934304689_"  style="overflow:visible;"/>
		</clipPath>
		
			<rect x="135.35" y="8.62" style="clip-path:url(#SVGID_00000070815692914275623100000013908202238835667134_);" width="10.73" height="13.01"/>
	</g>
	<g>
		<defs>
			<path id="SVGID_00000052081470672026165830000017786221158440610447_" d="M141.3,10.1c-0.29-1.07-1-1.48-1.99-1.48
				c-1.1,0-1.81,0.54-2.19,1.4c-0.01-0.43-0.01-0.83-0.07-1.2h-1.7c0.03,0.62,0.03,1.37,0.03,3.69v9.12h1.79v-8.81
				c0-1.46,0.27-2.55,1.44-2.55c0.87,0,1.22,0.49,1.22,1.87v9.5h1.8V12.7c0-1.38,0.27-2.45,1.47-2.45c1,0,1.19,0.76,1.19,1.76v9.61
				h1.79v-9.97c0-2.47-1.16-3.03-2.41-3.03C142.36,8.62,141.7,9.31,141.3,10.1"/>
		</defs>
		<clipPath id="SVGID_00000138548924721704380300000002580178104068663210_">
			<use xlink:href="#SVGID_00000052081470672026165830000017786221158440610447_"  style="overflow:visible;"/>
		</clipPath>
	</g>
</g>
<g>
	<g>
		<defs>
			<path id="SVGID_00000051371515817406091110000008142216524037309098_" d="M148.43,21.62h1.79V8.82h-1.79V21.62z M148.44,6.68
				h1.79v-2.6h-1.79V6.68z"/>
		</defs>
		<clipPath id="SVGID_00000062893293039944410170000006638244153044143239_">
			<use xlink:href="#SVGID_00000051371515817406091110000008142216524037309098_"  style="overflow:visible;"/>
		</clipPath>
	</g>
	<g>
		<defs>
			<path id="SVGID_00000105396791652464983540000013274006198664650160_" d="M148.43,21.62h1.79V8.82h-1.79V21.62z M148.44,6.68
				h1.79v-2.6h-1.79V6.68z"/>
		</defs>
		<use xlink:href="#SVGID_00000105396791652464983540000013274006198664650160_"  style="overflow:visible;"/>
		<clipPath id="SVGID_00000041265700097944271440000006202850721989521813_">
			<use xlink:href="#SVGID_00000105396791652464983540000013274006198664650160_"  style="overflow:visible;"/>
		</clipPath>
		
			<rect x="148.43" y="4.08" style="clip-path:url(#SVGID_00000041265700097944271440000006202850721989521813_);" width="1.8" height="17.54"/>
	</g>
	<g>
		<defs>
			<path id="SVGID_00000163061281707940194840000002644199038684186041_" d="M148.43,21.62h1.79V8.82h-1.79V21.62z M148.44,6.68
				h1.79v-2.6h-1.79V6.68z"/>
		</defs>
		<clipPath id="SVGID_00000007419376781194503680000010918792435424454789_">
			<use xlink:href="#SVGID_00000163061281707940194840000002644199038684186041_"  style="overflow:visible;"/>
		</clipPath>
	</g>
</g>
<g>
	<g>
		<defs>
			<polygon id="SVGID_00000041264473271650838970000003225194806907100323_" points="152.03,8.82 152.03,10.45 155.88,10.45 
				151.65,20.43 151.65,21.62 157.67,21.62 157.84,19.99 153.71,19.99 157.85,10.06 157.85,8.82 			"/>
		</defs>
		<clipPath id="SVGID_00000078033401947027832020000000673977733273498025_">
			<use xlink:href="#SVGID_00000041264473271650838970000003225194806907100323_"  style="overflow:visible;"/>
		</clipPath>
	</g>
	<g>
		<defs>
			<polygon id="SVGID_00000180346404427629875680000012193260007324382600_" points="152.03,8.82 152.03,10.45 155.88,10.45 
				151.65,20.43 151.65,21.62 157.67,21.62 157.84,19.99 153.71,19.99 157.85,10.06 157.85,8.82 			"/>
		</defs>
		<use xlink:href="#SVGID_00000180346404427629875680000012193260007324382600_"  style="overflow:visible;"/>
		<clipPath id="SVGID_00000068672713239699980290000005254665936622562196_">
			<use xlink:href="#SVGID_00000180346404427629875680000012193260007324382600_"  style="overflow:visible;"/>
		</clipPath>
		
			<rect x="151.65" y="8.82" style="clip-path:url(#SVGID_00000068672713239699980290000005254665936622562196_);" width="6.2" height="12.8"/>
	</g>
	<g>
		<defs>
			<polygon id="SVGID_00000110467962338985356130000012559389380545095828_" points="152.03,8.82 152.03,10.45 155.88,10.45 
				151.65,20.43 151.65,21.62 157.67,21.62 157.84,19.99 153.71,19.99 157.85,10.06 157.85,8.82 			"/>
		</defs>
		<clipPath id="SVGID_00000039116192240162019590000017628381413519762589_">
			<use xlink:href="#SVGID_00000110467962338985356130000012559389380545095828_"  style="overflow:visible;"/>
		</clipPath>
	</g>
</g>
<g>
	<g>
		<defs>
			<path id="SVGID_00000023253382419046580120000015429121315992572563_" d="M160.74,12.54c0-1.38,0.32-2.38,1.53-2.38
				c1.28,0,1.48,1.18,1.48,2.37v1.6h-3V12.54z M158.97,12.7v4.77c0,2.6,0.6,4.35,3.28,4.35c2.84,0,3.18-2.28,3.18-3.77v-0.09h-1.75
				v0.1c0,1.22-0.22,2.21-1.44,2.21c-1.26,0-1.52-1.33-1.52-2.6v-2.09h4.75V12.7c0-2.25-0.72-4.09-3.19-4.09
				C159.65,8.62,158.97,10.76,158.97,12.7"/>
		</defs>
		<clipPath id="SVGID_00000109022711152592259840000002430861594161580981_">
			<use xlink:href="#SVGID_00000023253382419046580120000015429121315992572563_"  style="overflow:visible;"/>
		</clipPath>
	</g>
	<g>
		<defs>
			<path id="SVGID_00000070838081209970406930000016410087687271925176_" d="M160.74,12.54c0-1.38,0.32-2.38,1.53-2.38
				c1.28,0,1.48,1.18,1.48,2.37v1.6h-3V12.54z M158.97,12.7v4.77c0,2.6,0.6,4.35,3.28,4.35c2.84,0,3.18-2.28,3.18-3.77v-0.09h-1.75
				v0.1c0,1.22-0.22,2.21-1.44,2.21c-1.26,0-1.52-1.33-1.52-2.6v-2.09h4.75V12.7c0-2.25-0.72-4.09-3.19-4.09
				C159.65,8.62,158.97,10.76,158.97,12.7"/>
		</defs>
		<use xlink:href="#SVGID_00000070838081209970406930000016410087687271925176_"  style="overflow:visible;"/>
		<clipPath id="SVGID_00000063633597718502943140000002225703782071119018_">
			<use xlink:href="#SVGID_00000070838081209970406930000016410087687271925176_"  style="overflow:visible;"/>
		</clipPath>
		
			<rect x="158.97" y="8.62" style="clip-path:url(#SVGID_00000063633597718502943140000002225703782071119018_);" width="6.5" height="13.21"/>
	</g>
	<g>
		<defs>
			<path id="SVGID_00000072271880516933491210000016800957850628332690_" d="M160.74,12.54c0-1.38,0.32-2.38,1.53-2.38
				c1.28,0,1.48,1.18,1.48,2.37v1.6h-3V12.54z M158.97,12.7v4.77c0,2.6,0.6,4.35,3.28,4.35c2.84,0,3.18-2.28,3.18-3.77v-0.09h-1.75
				v0.1c0,1.22-0.22,2.21-1.44,2.21c-1.26,0-1.52-1.33-1.52-2.6v-2.09h4.75V12.7c0-2.25-0.72-4.09-3.19-4.09
				C159.65,8.62,158.97,10.76,158.97,12.7"/>
		</defs>
		<clipPath id="SVGID_00000070820611785067190060000001618544571341545118_">
			<use xlink:href="#SVGID_00000072271880516933491210000016800957850628332690_"  style="overflow:visible;"/>
		</clipPath>
	</g>
</g>
<g>
	<g>
		<defs>
			<path id="SVGID_00000116201367058341707060000017902862986818812861_" d="M168.87,17.72v-5.2c0-1.39,0.43-2.26,1.49-2.26
				c1.46,0,1.6,1.27,1.6,2.68v4.21c0,1.77-0.31,3.05-1.65,3.05C169.28,20.19,168.87,19.35,168.87,17.72 M171.96,4.08v5.5
				c-0.28-0.51-0.91-0.96-2.01-0.96c-1.98,0-2.88,1.53-2.88,3.8v5.25c0,2.46,0.54,4.16,2.69,4.16c1.31,0,1.9-0.67,2.23-1.46
				c0,0.31,0.04,1.02,0.07,1.26h1.7c-0.03-0.72-0.03-1.78-0.03-3.3V4.08H171.96z"/>
		</defs>
		<clipPath id="SVGID_00000070118374861508829240000014317433950840757645_">
			<use xlink:href="#SVGID_00000116201367058341707060000017902862986818812861_"  style="overflow:visible;"/>
		</clipPath>
	</g>
	<g>
		<defs>
			<path id="SVGID_00000000181485698850583710000012184350443947673786_" d="M168.87,17.72v-5.2c0-1.39,0.43-2.26,1.49-2.26
				c1.46,0,1.6,1.27,1.6,2.68v4.21c0,1.77-0.31,3.05-1.65,3.05C169.28,20.19,168.87,19.35,168.87,17.72 M171.96,4.08v5.5
				c-0.28-0.51-0.91-0.96-2.01-0.96c-1.98,0-2.88,1.53-2.88,3.8v5.25c0,2.46,0.54,4.16,2.69,4.16c1.31,0,1.9-0.67,2.23-1.46
				c0,0.31,0.04,1.02,0.07,1.26h1.7c-0.03-0.72-0.03-1.78-0.03-3.3V4.08H171.96z"/>
		</defs>
		<use xlink:href="#SVGID_00000000181485698850583710000012184350443947673786_"  style="overflow:visible;"/>
		<clipPath id="SVGID_00000029033049020328080670000005831569835760454784_">
			<use xlink:href="#SVGID_00000000181485698850583710000012184350443947673786_"  style="overflow:visible;"/>
		</clipPath>
		
			<rect x="167.07" y="4.08" style="clip-path:url(#SVGID_00000029033049020328080670000005831569835760454784_);" width="6.7" height="17.75"/>
	</g>
	<g>
		<defs>
			<path id="SVGID_00000167366312319150129440000009696843910822736563_" d="M168.87,17.72v-5.2c0-1.39,0.43-2.26,1.49-2.26
				c1.46,0,1.6,1.27,1.6,2.68v4.21c0,1.77-0.31,3.05-1.65,3.05C169.28,20.19,168.87,19.35,168.87,17.72 M171.96,4.08v5.5
				c-0.28-0.51-0.91-0.96-2.01-0.96c-1.98,0-2.88,1.53-2.88,3.8v5.25c0,2.46,0.54,4.16,2.69,4.16c1.31,0,1.9-0.67,2.23-1.46
				c0,0.31,0.04,1.02,0.07,1.26h1.7c-0.03-0.72-0.03-1.78-0.03-3.3V4.08H171.96z"/>
		</defs>
		<clipPath id="SVGID_00000057113489134395316780000010111723500009907902_">
			<use xlink:href="#SVGID_00000167366312319150129440000009696843910822736563_"  style="overflow:visible;"/>
		</clipPath>
	</g>
</g>
<g>
	<g>
		<defs>
			<path id="SVGID_00000042736289368399027050000003800642289770595260_" d="M96.95,25.33h1.59c2.41,0,3.1,1.33,3.1,3.57v1.14
				c0,2.34-0.47,3.93-2.78,3.93h-1.91V25.33z M95.32,23.9v22.16h1.63V35.41h1.77c2.34,0,2.78,0.95,2.78,3.94
				c0,1.51-0.04,5.3,0.23,6.71h1.61c-0.26-1.44-0.23-4.94-0.23-6.86c0-2.93-0.6-4.08-2.08-4.54c1.43-0.47,2.26-1.96,2.26-4.69v-1.13
				c0-3.44-1.39-4.93-4.69-4.93H95.32z"/>
		</defs>
		<clipPath id="SVGID_00000030476513225668248210000004940927739053198521_">
			<use xlink:href="#SVGID_00000042736289368399027050000003800642289770595260_"  style="overflow:visible;"/>
		</clipPath>
	</g>
	<g>
		<defs>
			<path id="SVGID_00000134233491106461851900000006792466558174385543_" d="M96.95,25.33h1.59c2.41,0,3.1,1.33,3.1,3.57v1.14
				c0,2.34-0.47,3.93-2.78,3.93h-1.91V25.33z M95.32,23.9v22.16h1.63V35.41h1.77c2.34,0,2.78,0.95,2.78,3.94
				c0,1.51-0.04,5.3,0.23,6.71h1.61c-0.26-1.44-0.23-4.94-0.23-6.86c0-2.93-0.6-4.08-2.08-4.54c1.43-0.47,2.26-1.96,2.26-4.69v-1.13
				c0-3.44-1.39-4.93-4.69-4.93H95.32z"/>
		</defs>
		<use xlink:href="#SVGID_00000134233491106461851900000006792466558174385543_"  style="overflow:visible;"/>
		<clipPath id="SVGID_00000119820718522536352610000017556253190415816591_">
			<use xlink:href="#SVGID_00000134233491106461851900000006792466558174385543_"  style="overflow:visible;"/>
		</clipPath>
		
			<rect x="95.32" y="23.9" style="clip-path:url(#SVGID_00000119820718522536352610000017556253190415816591_);" width="8.02" height="22.16"/>
	</g>
	<g>
		<defs>
			<path id="SVGID_00000077323328784201086860000017339974604169022902_" d="M96.95,25.33h1.59c2.41,0,3.1,1.33,3.1,3.57v1.14
				c0,2.34-0.47,3.93-2.78,3.93h-1.91V25.33z M95.32,23.9v22.16h1.63V35.41h1.77c2.34,0,2.78,0.95,2.78,3.94
				c0,1.51-0.04,5.3,0.23,6.71h1.61c-0.26-1.44-0.23-4.94-0.23-6.86c0-2.93-0.6-4.08-2.08-4.54c1.43-0.47,2.26-1.96,2.26-4.69v-1.13
				c0-3.44-1.39-4.93-4.69-4.93H95.32z"/>
		</defs>
		<clipPath id="SVGID_00000053511192717592498630000006522801755619852457_">
			<use xlink:href="#SVGID_00000077323328784201086860000017339974604169022902_"  style="overflow:visible;"/>
		</clipPath>
	</g>
</g>
<g>
	<g>
		<defs>
			<path id="SVGID_00000067922397450198404410000007865354744136043958_" d="M106.49,37.02c0-1.47,0.26-2.75,1.73-2.75
				c1.53,0,1.66,1.54,1.66,2.73v1.79h-3.39V37.02z M105.27,37v5.13c0,2.58,0.69,4.13,2.92,4.13c2.5,0,2.89-2.01,2.89-3.58v-0.11
				h-1.22v0.14c0,1.43-0.29,2.46-1.63,2.46c-1.46,0-1.73-1.61-1.73-3.07v-2.22h4.61v-2.85c0-2.04-0.6-3.84-2.86-3.84
				C106.03,33.17,105.27,34.94,105.27,37"/>
		</defs>
		<clipPath id="SVGID_00000133487822809107584240000014893829420948827024_">
			<use xlink:href="#SVGID_00000067922397450198404410000007865354744136043958_"  style="overflow:visible;"/>
		</clipPath>
	</g>
	<g>
		<defs>
			<path id="SVGID_00000116914469683694085720000004268833295760525466_" d="M106.49,37.02c0-1.47,0.26-2.75,1.73-2.75
				c1.53,0,1.66,1.54,1.66,2.73v1.79h-3.39V37.02z M105.27,37v5.13c0,2.58,0.69,4.13,2.92,4.13c2.5,0,2.89-2.01,2.89-3.58v-0.11
				h-1.22v0.14c0,1.43-0.29,2.46-1.63,2.46c-1.46,0-1.73-1.61-1.73-3.07v-2.22h4.61v-2.85c0-2.04-0.6-3.84-2.86-3.84
				C106.03,33.17,105.27,34.94,105.27,37"/>
		</defs>
		<use xlink:href="#SVGID_00000116914469683694085720000004268833295760525466_"  style="overflow:visible;"/>
		<clipPath id="SVGID_00000029018732415805365400000004454690797722863010_">
			<use xlink:href="#SVGID_00000116914469683694085720000004268833295760525466_"  style="overflow:visible;"/>
		</clipPath>
		
			<rect x="105.27" y="33.17" style="clip-path:url(#SVGID_00000029018732415805365400000004454690797722863010_);" width="5.84" height="13.08"/>
	</g>
	<g>
		<defs>
			<path id="SVGID_00000010268828530814692400000008794506533096420025_" d="M106.49,37.02c0-1.47,0.26-2.75,1.73-2.75
				c1.53,0,1.66,1.54,1.66,2.73v1.79h-3.39V37.02z M105.27,37v5.13c0,2.58,0.69,4.13,2.92,4.13c2.5,0,2.89-2.01,2.89-3.58v-0.11
				h-1.22v0.14c0,1.43-0.29,2.46-1.63,2.46c-1.46,0-1.73-1.61-1.73-3.07v-2.22h4.61v-2.85c0-2.04-0.6-3.84-2.86-3.84
				C106.03,33.17,105.27,34.94,105.27,37"/>
		</defs>
		<clipPath id="SVGID_00000093881745135756404730000014276955405106602125_">
			<use xlink:href="#SVGID_00000010268828530814692400000008794506533096420025_"  style="overflow:visible;"/>
		</clipPath>
	</g>
</g>
<g>
	<g>
		<defs>
			<path id="SVGID_00000049221290892653067920000002003309960442448526_" d="M112.75,36.85v5.33c0,2.53,0.66,4.07,2.81,4.07
				c2.35,0,2.89-1.77,2.89-3.89v-0.18h-1.25v0.26c0,2.01-0.46,2.71-1.61,2.71c-1.33,0-1.59-1.49-1.59-2.83v-5.4
				c0-1.81,0.48-2.66,1.63-2.66c1.35,0,1.56,1.24,1.56,2.51v0.37h1.25v-0.54c0-1.78-0.55-3.44-2.78-3.44
				C113.6,33.17,112.75,34.65,112.75,36.85"/>
		</defs>
		<clipPath id="SVGID_00000029730854714730402970000015814084943737030832_">
			<use xlink:href="#SVGID_00000049221290892653067920000002003309960442448526_"  style="overflow:visible;"/>
		</clipPath>
	</g>
	<g>
		<defs>
			<path id="SVGID_00000079462724988561682540000009587200550140787585_" d="M112.75,36.85v5.33c0,2.53,0.66,4.07,2.81,4.07
				c2.35,0,2.89-1.77,2.89-3.89v-0.18h-1.25v0.26c0,2.01-0.46,2.71-1.61,2.71c-1.33,0-1.59-1.49-1.59-2.83v-5.4
				c0-1.81,0.48-2.66,1.63-2.66c1.35,0,1.56,1.24,1.56,2.51v0.37h1.25v-0.54c0-1.78-0.55-3.44-2.78-3.44
				C113.6,33.17,112.75,34.65,112.75,36.85"/>
		</defs>
		<use xlink:href="#SVGID_00000079462724988561682540000009587200550140787585_"  style="overflow:visible;"/>
		<clipPath id="SVGID_00000019654968441354309630000015502637224905869445_">
			<use xlink:href="#SVGID_00000079462724988561682540000009587200550140787585_"  style="overflow:visible;"/>
		</clipPath>
		
			<rect x="112.75" y="33.17" style="clip-path:url(#SVGID_00000019654968441354309630000015502637224905869445_);" width="5.7" height="13.08"/>
	</g>
	<g>
		<defs>
			<path id="SVGID_00000013896416926882247220000002451584790204564649_" d="M112.75,36.85v5.33c0,2.53,0.66,4.07,2.81,4.07
				c2.35,0,2.89-1.77,2.89-3.89v-0.18h-1.25v0.26c0,2.01-0.46,2.71-1.61,2.71c-1.33,0-1.59-1.49-1.59-2.83v-5.4
				c0-1.81,0.48-2.66,1.63-2.66c1.35,0,1.56,1.24,1.56,2.51v0.37h1.25v-0.54c0-1.78-0.55-3.44-2.78-3.44
				C113.6,33.17,112.75,34.65,112.75,36.85"/>
		</defs>
		<clipPath id="SVGID_00000032650194624095235520000006731060948451820439_">
			<use xlink:href="#SVGID_00000013896416926882247220000002451584790204564649_"  style="overflow:visible;"/>
		</clipPath>
	</g>
</g>
<g>
	<g>
		<defs>
			<path id="SVGID_00000152263846834213634600000008996700373340305328_" d="M121.48,35.3c0-0.97-0.03-1.53-0.06-1.93h-1.19
				c0.03,1.01,0.02,2.33,0.02,4.33v8.35h1.24v-7.93c0-2.07,0.92-3.36,2.57-3.38v-1.53C123,33.26,121.92,33.85,121.48,35.3"/>
		</defs>
		<clipPath id="SVGID_00000027584441195121643380000018099573997030160292_">
			<use xlink:href="#SVGID_00000152263846834213634600000008996700373340305328_"  style="overflow:visible;"/>
		</clipPath>
	</g>
	<g>
		<defs>
			<path id="SVGID_00000065771909601743148560000007745704254817455518_" d="M121.48,35.3c0-0.97-0.03-1.53-0.06-1.93h-1.19
				c0.03,1.01,0.02,2.33,0.02,4.33v8.35h1.24v-7.93c0-2.07,0.92-3.36,2.57-3.38v-1.53C123,33.26,121.92,33.85,121.48,35.3"/>
		</defs>
		<use xlink:href="#SVGID_00000065771909601743148560000007745704254817455518_"  style="overflow:visible;"/>
		<clipPath id="SVGID_00000027572856906374622190000009781134372615869366_">
			<use xlink:href="#SVGID_00000065771909601743148560000007745704254817455518_"  style="overflow:visible;"/>
		</clipPath>
		
			<rect x="120.23" y="33.21" style="clip-path:url(#SVGID_00000027572856906374622190000009781134372615869366_);" width="3.83" height="12.84"/>
	</g>
	<g>
		<defs>
			<path id="SVGID_00000178196926083676047620000017712003787583410567_" d="M121.48,35.3c0-0.97-0.03-1.53-0.06-1.93h-1.19
				c0.03,1.01,0.02,2.33,0.02,4.33v8.35h1.24v-7.93c0-2.07,0.92-3.36,2.57-3.38v-1.53C123,33.26,121.92,33.85,121.48,35.3"/>
		</defs>
		<clipPath id="SVGID_00000057851578896909008710000009663365845801198008_">
			<use xlink:href="#SVGID_00000178196926083676047620000017712003787583410567_"  style="overflow:visible;"/>
		</clipPath>
	</g>
</g>
<g>
	<g>
		<defs>
			<path id="SVGID_00000182527012512550601180000014730032857409441163_" d="M130.02,33.37v8.22c0,2.97-0.92,3.52-1.86,3.52
				c-1.07,0-1.52-0.64-1.52-2.38v-9.36h-1.24v9.69c0,2.9,1.49,3.19,2.43,3.19c1.12,0,1.86-0.42,2.22-1.6c0,0.52,0.03,1.19,0.06,1.4
				h1.17c-0.03-0.56-0.03-1.75-0.03-3.23v-9.45H130.02z"/>
		</defs>
		<clipPath id="SVGID_00000176006632178327852900000007344542779421835196_">
			<use xlink:href="#SVGID_00000182527012512550601180000014730032857409441163_"  style="overflow:visible;"/>
		</clipPath>
	</g>
	<g>
		<defs>
			<path id="SVGID_00000129918183251060982810000014043844728024773788_" d="M130.02,33.37v8.22c0,2.97-0.92,3.52-1.86,3.52
				c-1.07,0-1.52-0.64-1.52-2.38v-9.36h-1.24v9.69c0,2.9,1.49,3.19,2.43,3.19c1.12,0,1.86-0.42,2.22-1.6c0,0.52,0.03,1.19,0.06,1.4
				h1.17c-0.03-0.56-0.03-1.75-0.03-3.23v-9.45H130.02z"/>
		</defs>
		<use xlink:href="#SVGID_00000129918183251060982810000014043844728024773788_"  style="overflow:visible;"/>
		<clipPath id="SVGID_00000009553602457625809710000007709902572644988294_">
			<use xlink:href="#SVGID_00000129918183251060982810000014043844728024773788_"  style="overflow:visible;"/>
		</clipPath>
		
			<rect x="125.4" y="33.37" style="clip-path:url(#SVGID_00000009553602457625809710000007709902572644988294_);" width="5.88" height="12.88"/>
	</g>
	<g>
		<defs>
			<path id="SVGID_00000129893143791029180650000012480923238554469533_" d="M130.02,33.37v8.22c0,2.97-0.92,3.52-1.86,3.52
				c-1.07,0-1.52-0.64-1.52-2.38v-9.36h-1.24v9.69c0,2.9,1.49,3.19,2.43,3.19c1.12,0,1.86-0.42,2.22-1.6c0,0.52,0.03,1.19,0.06,1.4
				h1.17c-0.03-0.56-0.03-1.75-0.03-3.23v-9.45H130.02z"/>
		</defs>
		<clipPath id="SVGID_00000068672006519522079220000013332968388911115657_">
			<use xlink:href="#SVGID_00000129893143791029180650000012480923238554469533_"  style="overflow:visible;"/>
		</clipPath>
	</g>
</g>
<g>
	<g>
		<defs>
			<path id="SVGID_00000052818821306487134680000003559248724591598225_" d="M133.76,46.05H135V33.37h-1.24V46.05z M133.77,30.95
				H135v-2.48h-1.24V30.95z"/>
		</defs>
		<clipPath id="SVGID_00000010998053901827825490000018308065989863212458_">
			<use xlink:href="#SVGID_00000052818821306487134680000003559248724591598225_"  style="overflow:visible;"/>
		</clipPath>
	</g>
	<g>
		<defs>
			<path id="SVGID_00000013895890579774898160000003612764951603144620_" d="M133.76,46.05H135V33.37h-1.24V46.05z M133.77,30.95
				H135v-2.48h-1.24V30.95z"/>
		</defs>
		<use xlink:href="#SVGID_00000013895890579774898160000003612764951603144620_"  style="overflow:visible;"/>
		<clipPath id="SVGID_00000041981549600910170000000009320091840167812529_">
			<use xlink:href="#SVGID_00000013895890579774898160000003612764951603144620_"  style="overflow:visible;"/>
		</clipPath>
		
			<rect x="133.76" y="28.47" style="clip-path:url(#SVGID_00000041981549600910170000000009320091840167812529_);" width="1.24" height="17.59"/>
	</g>
	<g>
		<defs>
			<path id="SVGID_00000026869764909986610550000011243707113911112118_" d="M133.76,46.05H135V33.37h-1.24V46.05z M133.77,30.95
				H135v-2.48h-1.24V30.95z"/>
		</defs>
		<clipPath id="SVGID_00000097475745618248418450000015850212663957940112_">
			<use xlink:href="#SVGID_00000026869764909986610550000011243707113911112118_"  style="overflow:visible;"/>
		</clipPath>
	</g>
</g>
<g>
	<g>
		<defs>
			<path id="SVGID_00000025440169621655743520000001516465708835711110_" d="M137.7,30.21v3.17h-1.53v1.12h1.53v9.46
				c0,1.75,0.81,2.26,1.79,2.26c0.4,0,0.91-0.03,1.26-0.15v-1c-0.21,0.05-0.62,0.08-0.87,0.08c-0.82,0-0.96-0.73-0.96-1.42v-9.24
				h1.93v-1.12h-1.93v-3.17H137.7z"/>
		</defs>
		<clipPath id="SVGID_00000013895494075064820820000007117822778718927030_">
			<use xlink:href="#SVGID_00000025440169621655743520000001516465708835711110_"  style="overflow:visible;"/>
		</clipPath>
	</g>
	<g>
		<defs>
			<path id="SVGID_00000099622979916470259750000009628425882601347986_" d="M137.7,30.21v3.17h-1.53v1.12h1.53v9.46
				c0,1.75,0.81,2.26,1.79,2.26c0.4,0,0.91-0.03,1.26-0.15v-1c-0.21,0.05-0.62,0.08-0.87,0.08c-0.82,0-0.96-0.73-0.96-1.42v-9.24
				h1.93v-1.12h-1.93v-3.17H137.7z"/>
		</defs>
		<use xlink:href="#SVGID_00000099622979916470259750000009628425882601347986_"  style="overflow:visible;"/>
		<clipPath id="SVGID_00000163066350139210245240000013695530508863016349_">
			<use xlink:href="#SVGID_00000099622979916470259750000009628425882601347986_"  style="overflow:visible;"/>
		</clipPath>
		
			<rect x="136.17" y="30.21" style="clip-path:url(#SVGID_00000163066350139210245240000013695530508863016349_);" width="4.67" height="16.01"/>
	</g>
	<g>
		<defs>
			<path id="SVGID_00000016055362664924467240000004905698750584925841_" d="M137.7,30.21v3.17h-1.53v1.12h1.53v9.46
				c0,1.75,0.81,2.26,1.79,2.26c0.4,0,0.91-0.03,1.26-0.15v-1c-0.21,0.05-0.62,0.08-0.87,0.08c-0.82,0-0.96-0.73-0.96-1.42v-9.24
				h1.93v-1.12h-1.93v-3.17H137.7z"/>
		</defs>
		<clipPath id="SVGID_00000080177531276620605280000017857245563642788287_">
			<use xlink:href="#SVGID_00000016055362664924467240000004905698750584925841_"  style="overflow:visible;"/>
		</clipPath>
	</g>
</g>
<g>
	<g>
		<defs>
			<path id="SVGID_00000016767083385059375720000011339544117687896199_" d="M147.41,34.71c-0.26-1.16-0.99-1.53-1.93-1.53
				c-1.14,0-1.8,0.58-2.13,1.44c0-0.41,0-0.88-0.06-1.24h-1.17c0.02,0.64,0.02,1.49,0.02,3.64v9.04h1.24v-8.74
				c0-1.61,0.32-2.97,1.67-2.97c1.04,0,1.39,0.63,1.39,2.14v9.57h1.24v-8.94c0-1.45,0.31-2.77,1.71-2.77c1.18,0,1.35,0.94,1.35,2.01
				v9.71h1.24v-10c0-2.42-1.16-2.88-2.3-2.88C148.42,33.17,147.76,33.87,147.41,34.71"/>
		</defs>
		<clipPath id="SVGID_00000093877298891416598510000015197801890046079637_">
			<use xlink:href="#SVGID_00000016767083385059375720000011339544117687896199_"  style="overflow:visible;"/>
		</clipPath>
	</g>
	<g>
		<defs>
			<path id="SVGID_00000034070124843345767950000016893188317242680476_" d="M147.41,34.71c-0.26-1.16-0.99-1.53-1.93-1.53
				c-1.14,0-1.8,0.58-2.13,1.44c0-0.41,0-0.88-0.06-1.24h-1.17c0.02,0.64,0.02,1.49,0.02,3.64v9.04h1.24v-8.74
				c0-1.61,0.32-2.97,1.67-2.97c1.04,0,1.39,0.63,1.39,2.14v9.57h1.24v-8.94c0-1.45,0.31-2.77,1.71-2.77c1.18,0,1.35,0.94,1.35,2.01
				v9.71h1.24v-10c0-2.42-1.16-2.88-2.3-2.88C148.42,33.17,147.76,33.87,147.41,34.71"/>
		</defs>
		<use xlink:href="#SVGID_00000034070124843345767950000016893188317242680476_"  style="overflow:visible;"/>
		<clipPath id="SVGID_00000145035374487473033340000006053903301794127546_">
			<use xlink:href="#SVGID_00000034070124843345767950000016893188317242680476_"  style="overflow:visible;"/>
		</clipPath>
		
			<rect x="142.13" y="33.17" style="clip-path:url(#SVGID_00000145035374487473033340000006053903301794127546_);" width="9.86" height="12.88"/>
	</g>
	<g>
		<defs>
			<path id="SVGID_00000060728025191254832660000016026485538418717628_" d="M147.41,34.71c-0.26-1.16-0.99-1.53-1.93-1.53
				c-1.14,0-1.8,0.58-2.13,1.44c0-0.41,0-0.88-0.06-1.24h-1.17c0.02,0.64,0.02,1.49,0.02,3.64v9.04h1.24v-8.74
				c0-1.61,0.32-2.97,1.67-2.97c1.04,0,1.39,0.63,1.39,2.14v9.57h1.24v-8.94c0-1.45,0.31-2.77,1.71-2.77c1.18,0,1.35,0.94,1.35,2.01
				v9.71h1.24v-10c0-2.42-1.16-2.88-2.3-2.88C148.42,33.17,147.76,33.87,147.41,34.71"/>
		</defs>
		<clipPath id="SVGID_00000037663229751172819670000017565891043278361237_">
			<use xlink:href="#SVGID_00000060728025191254832660000016026485538418717628_"  style="overflow:visible;"/>
		</clipPath>
	</g>
</g>
<g>
	<g>
		<defs>
			<path id="SVGID_00000054233271484392223540000000518783912282468260_" d="M155.33,37.02c0-1.47,0.26-2.75,1.73-2.75
				c1.53,0,1.66,1.54,1.66,2.73v1.79h-3.39V37.02z M154.1,37v5.13c0,2.58,0.69,4.13,2.92,4.13c2.5,0,2.89-2.01,2.89-3.58v-0.11
				h-1.22v0.14c0,1.43-0.29,2.46-1.63,2.46c-1.46,0-1.73-1.61-1.73-3.07v-2.22h4.61v-2.85c0-2.04-0.6-3.84-2.86-3.84
				C154.86,33.17,154.1,34.94,154.1,37"/>
		</defs>
		<clipPath id="SVGID_00000121269466813897647330000008511626223003880636_">
			<use xlink:href="#SVGID_00000054233271484392223540000000518783912282468260_"  style="overflow:visible;"/>
		</clipPath>
	</g>
	<g>
		<defs>
			<path id="SVGID_00000075859953717238996920000015228239685804623007_" d="M155.33,37.02c0-1.47,0.26-2.75,1.73-2.75
				c1.53,0,1.66,1.54,1.66,2.73v1.79h-3.39V37.02z M154.1,37v5.13c0,2.58,0.69,4.13,2.92,4.13c2.5,0,2.89-2.01,2.89-3.58v-0.11
				h-1.22v0.14c0,1.43-0.29,2.46-1.63,2.46c-1.46,0-1.73-1.61-1.73-3.07v-2.22h4.61v-2.85c0-2.04-0.6-3.84-2.86-3.84
				C154.86,33.17,154.1,34.94,154.1,37"/>
		</defs>
		<use xlink:href="#SVGID_00000075859953717238996920000015228239685804623007_"  style="overflow:visible;"/>
		<clipPath id="SVGID_00000006679890685083309600000017187972040106906782_">
			<use xlink:href="#SVGID_00000075859953717238996920000015228239685804623007_"  style="overflow:visible;"/>
		</clipPath>
		
			<rect x="154.1" y="33.17" style="clip-path:url(#SVGID_00000006679890685083309600000017187972040106906782_);" width="5.84" height="13.08"/>
	</g>
	<g>
		<defs>
			<path id="SVGID_00000009576682911470440540000001098342810640510856_" d="M155.33,37.02c0-1.47,0.26-2.75,1.73-2.75
				c1.53,0,1.66,1.54,1.66,2.73v1.79h-3.39V37.02z M154.1,37v5.13c0,2.58,0.69,4.13,2.92,4.13c2.5,0,2.89-2.01,2.89-3.58v-0.11
				h-1.22v0.14c0,1.43-0.29,2.46-1.63,2.46c-1.46,0-1.73-1.61-1.73-3.07v-2.22h4.61v-2.85c0-2.04-0.6-3.84-2.86-3.84
				C154.86,33.17,154.1,34.94,154.1,37"/>
		</defs>
		<clipPath id="SVGID_00000030468459257240796250000004757836081259589011_">
			<use xlink:href="#SVGID_00000009576682911470440540000001098342810640510856_"  style="overflow:visible;"/>
		</clipPath>
	</g>
</g>
<g>
	<g>
		<defs>
			<path id="SVGID_00000058554536674479280140000009158776960333417866_" d="M163.14,34.72c0-0.67-0.03-1.07-0.06-1.35h-1.17
				c0.02,0.66,0.02,1.3,0.02,3.82v8.86h1.24v-8.27c0-2.88,0.79-3.44,1.97-3.44c1.08,0,1.5,0.78,1.5,2.06v9.65h1.24v-9.91
				c0-2.28-1.15-2.97-2.43-2.97C164.32,33.17,163.52,33.66,163.14,34.72"/>
		</defs>
		<clipPath id="SVGID_00000101793352970561888030000000141423749853994922_">
			<use xlink:href="#SVGID_00000058554536674479280140000009158776960333417866_"  style="overflow:visible;"/>
		</clipPath>
	</g>
	<g>
		<defs>
			<path id="SVGID_00000076603984451075266470000008178433980997853115_" d="M163.14,34.72c0-0.67-0.03-1.07-0.06-1.35h-1.17
				c0.02,0.66,0.02,1.3,0.02,3.82v8.86h1.24v-8.27c0-2.88,0.79-3.44,1.97-3.44c1.08,0,1.5,0.78,1.5,2.06v9.65h1.24v-9.91
				c0-2.28-1.15-2.97-2.43-2.97C164.32,33.17,163.52,33.66,163.14,34.72"/>
		</defs>
		<use xlink:href="#SVGID_00000076603984451075266470000008178433980997853115_"  style="overflow:visible;"/>
		<clipPath id="SVGID_00000066495477341485127170000006971243549233727883_">
			<use xlink:href="#SVGID_00000076603984451075266470000008178433980997853115_"  style="overflow:visible;"/>
		</clipPath>
		
			<rect x="161.91" y="33.17" style="clip-path:url(#SVGID_00000066495477341485127170000006971243549233727883_);" width="5.97" height="12.88"/>
	</g>
	<g>
		<defs>
			<path id="SVGID_00000070119830656755831880000001657398988124938934_" d="M163.14,34.72c0-0.67-0.03-1.07-0.06-1.35h-1.17
				c0.02,0.66,0.02,1.3,0.02,3.82v8.86h1.24v-8.27c0-2.88,0.79-3.44,1.97-3.44c1.08,0,1.5,0.78,1.5,2.06v9.65h1.24v-9.91
				c0-2.28-1.15-2.97-2.43-2.97C164.32,33.17,163.52,33.66,163.14,34.72"/>
		</defs>
		<clipPath id="SVGID_00000037670507116048278380000003579112354655632051_">
			<use xlink:href="#SVGID_00000070119830656755831880000001657398988124938934_"  style="overflow:visible;"/>
		</clipPath>
	</g>
</g>
<g>
	<g>
		<defs>
			<path id="SVGID_00000148641959901578554680000001309089171419027898_" d="M170.56,30.21v3.17h-1.53v1.12h1.53v9.46
				c0,1.75,0.81,2.26,1.79,2.26c0.4,0,0.91-0.03,1.26-0.15v-1c-0.21,0.05-0.62,0.08-0.87,0.08c-0.82,0-0.96-0.73-0.96-1.42v-9.24
				h1.93v-1.12h-1.93v-3.17H170.56z"/>
		</defs>
		<clipPath id="SVGID_00000050627765153095077110000005331651536327286706_">
			<use xlink:href="#SVGID_00000148641959901578554680000001309089171419027898_"  style="overflow:visible;"/>
		</clipPath>
	</g>
	<g>
		<defs>
			<path id="SVGID_00000136373849752631198980000005017025310835473070_" d="M170.56,30.21v3.17h-1.53v1.12h1.53v9.46
				c0,1.75,0.81,2.26,1.79,2.26c0.4,0,0.91-0.03,1.26-0.15v-1c-0.21,0.05-0.62,0.08-0.87,0.08c-0.82,0-0.96-0.73-0.96-1.42v-9.24
				h1.93v-1.12h-1.93v-3.17H170.56z"/>
		</defs>
		<use xlink:href="#SVGID_00000136373849752631198980000005017025310835473070_"  style="overflow:visible;"/>
		<clipPath id="SVGID_00000056400873552420101930000002132895977630719879_">
			<use xlink:href="#SVGID_00000136373849752631198980000005017025310835473070_"  style="overflow:visible;"/>
		</clipPath>
		
			<rect x="169.03" y="30.21" style="clip-path:url(#SVGID_00000056400873552420101930000002132895977630719879_);" width="4.67" height="16.01"/>
	</g>
	<g>
		<defs>
			<path id="SVGID_00000002364998932469437810000008381208373710321286_" d="M170.56,30.21v3.17h-1.53v1.12h1.53v9.46
				c0,1.75,0.81,2.26,1.79,2.26c0.4,0,0.91-0.03,1.26-0.15v-1c-0.21,0.05-0.62,0.08-0.87,0.08c-0.82,0-0.96-0.73-0.96-1.42v-9.24
				h1.93v-1.12h-1.93v-3.17H170.56z"/>
		</defs>
		<clipPath id="SVGID_00000175314513448147030510000014720411057052476064_">
			<use xlink:href="#SVGID_00000002364998932469437810000008381208373710321286_"  style="overflow:visible;"/>
		</clipPath>
	</g>
</g>
<linearGradient id="SVGID_1_" gradientUnits="userSpaceOnUse" x1="1.2256" y1="24.9355" x2="77.0521" y2="24.9355">
	<stop  offset="0" style="stop-color:#D5791A"/>
	<stop  offset="4.466860e-03" style="stop-color:#D5791A"/>
	<stop  offset="0.0484" style="stop-color:#D5711F"/>
	<stop  offset="0.1381" style="stop-color:#D86226"/>
	<stop  offset="0.2354" style="stop-color:#D9532B"/>
	<stop  offset="0.3431" style="stop-color:#DB472E"/>
	<stop  offset="0.4692" style="stop-color:#DC3F2F"/>
	<stop  offset="0.6579" style="stop-color:#DC3D30"/>
</linearGradient>
<path class="st21" d="M68.79,27.2c3.86-2.68,6.4-7.13,6.4-12.16c0-8.17-6.67-14.82-14.87-14.82h0h-3.13h-1.15h-9.95v0H19.87
	c6.8,0,12.7,2.43,17.51,7.21c2.41,2.44,4.24,5.17,5.44,8.12l0.37,0.92l-5.48,2.74l-0.43-1.09c-0.91-2.32-2.33-4.47-4.22-6.38
	c-3.63-3.61-8.07-5.44-13.2-5.44s-9.56,1.84-13.18,5.46c-3.62,3.62-5.46,8.06-5.46,13.18c0,5.12,1.84,9.56,5.46,13.18
	c3.63,3.62,8.06,5.46,13.18,5.46c5.12,0,9.56-1.84,13.2-5.48c1.88-1.88,3.3-4.02,4.22-6.34l0.43-1.09l5.48,2.74l-0.37,0.92
	c-1.21,2.96-3.04,5.68-5.44,8.08c-4.76,4.76-10.58,7.19-17.3,7.24h25.96v0.01h11.15V29.52c0,0,0,0,0,0
	c1.01,0.22,2.05,0.34,3.13,0.34c0.6,0,1.19-0.04,1.77-0.11l7.34,19.92l7.62-0.05L68.79,27.2z M60.32,24.51
	c-5.24,0-9.51-4.25-9.51-9.48c0-5.23,4.27-9.48,9.51-9.48c5.24,0,9.51,4.25,9.51,9.48C69.83,20.26,65.56,24.51,60.32,24.51z"/>
<rect x="105.58" y="0.72" class="st22" width="68.12" height="1.17"/>
<rect x="95.32" y="48.52" class="st22" width="78.38" height="1.15"/>
</svg>
